# Blender 3.4.1
# www.blender.org
mtllib circle.mtl
o Cylinder
v 0.000000 -0.001000 -2.000000
v 0.000000 0.001000 -2.000000
v 0.390181 -0.001000 -1.961571
v 0.390181 0.001000 -1.961571
v 0.765367 -0.001000 -1.847759
v 0.765367 0.001000 -1.847759
v 1.111140 -0.001000 -1.662939
v 1.111140 0.001000 -1.662939
v 1.414214 -0.001000 -1.414214
v 1.414214 0.001000 -1.414214
v 1.662939 -0.001000 -1.111140
v 1.662939 0.001000 -1.111140
v 1.847759 -0.001000 -0.765367
v 1.847759 0.001000 -0.765367
v 1.961571 -0.001000 -0.390181
v 1.961571 0.001000 -0.390181
v 2.000000 -0.001000 0.000000
v 2.000000 0.001000 0.000000
v 1.961571 -0.001000 0.390181
v 1.961571 0.001000 0.390181
v 1.847759 -0.001000 0.765367
v 1.847759 0.001000 0.765367
v 1.662939 -0.001000 1.111140
v 1.662939 0.001000 1.111140
v 1.414214 -0.001000 1.414214
v 1.414214 0.001000 1.414214
v 1.111140 -0.001000 1.662939
v 1.111140 0.001000 1.662939
v 0.765367 -0.001000 1.847759
v 0.765367 0.001000 1.847759
v 0.390181 -0.001000 1.961571
v 0.390181 0.001000 1.961571
v 0.000000 -0.001000 2.000000
v 0.000000 0.001000 2.000000
v -0.390181 -0.001000 1.961571
v -0.390181 0.001000 1.961571
v -0.765367 -0.001000 1.847759
v -0.765367 0.001000 1.847759
v -1.111140 -0.001000 1.662939
v -1.111140 0.001000 1.662939
v -1.414214 -0.001000 1.414214
v -1.414214 0.001000 1.414214
v -1.662939 -0.001000 1.111140
v -1.662939 0.001000 1.111140
v -1.847759 -0.001000 0.765367
v -1.847759 0.001000 0.765367
v -1.961571 -0.001000 0.390181
v -1.961571 0.001000 0.390181
v -2.000000 -0.001000 0.000000
v -2.000000 0.001000 0.000000
v -1.961571 -0.001000 -0.390181
v -1.961571 0.001000 -0.390181
v -1.847759 -0.001000 -0.765367
v -1.847759 0.001000 -0.765367
v -1.662939 -0.001000 -1.111140
v -1.662939 0.001000 -1.111140
v -1.414214 -0.001000 -1.414214
v -1.414214 0.001000 -1.414214
v -1.111140 -0.001000 -1.662939
v -1.111140 0.001000 -1.662939
v -0.765367 -0.001000 -1.847759
v -0.765367 0.001000 -1.847759
v -0.390181 -0.001000 -1.961571
v -0.390181 0.001000 -1.961571
vn 0.0980 -0.0000 -0.9952
vn 0.2903 -0.0000 -0.9569
vn 0.4714 -0.0000 -0.8819
vn 0.6344 -0.0000 -0.7730
vn 0.7730 -0.0000 -0.6344
vn 0.8819 -0.0000 -0.4714
vn 0.9569 -0.0000 -0.2903
vn 0.9952 -0.0000 -0.0980
vn 0.9952 -0.0000 0.0980
vn 0.9569 -0.0000 0.2903
vn 0.8819 -0.0000 0.4714
vn 0.7730 -0.0000 0.6344
vn 0.6344 -0.0000 0.7730
vn 0.4714 -0.0000 0.8819
vn 0.2903 -0.0000 0.9569
vn 0.0980 -0.0000 0.9952
vn -0.0980 -0.0000 0.9952
vn -0.2903 -0.0000 0.9569
vn -0.4714 -0.0000 0.8819
vn -0.6344 -0.0000 0.7730
vn -0.7730 -0.0000 0.6344
vn -0.8819 -0.0000 0.4714
vn -0.9569 -0.0000 0.2903
vn -0.9952 -0.0000 0.0980
vn -0.9952 -0.0000 -0.0980
vn -0.9569 -0.0000 -0.2903
vn -0.8819 -0.0000 -0.4714
vn -0.7730 -0.0000 -0.6344
vn -0.6344 -0.0000 -0.7730
vn -0.4714 -0.0000 -0.8819
vn -0.0000 1.0000 -0.0000
vn -0.2903 -0.0000 -0.9569
vn -0.0980 -0.0000 -0.9952
vn -0.0000 -1.0000 -0.0000
vt 0.679345 0.782041
vt 0.702408 0.418576
vt 0.024286 0.112311
vt 0.679345 0.426777
vt 0.713498 0.782041
vt 0.661182 0.426777
vt 0.713498 0.426777
vt 0.008200 0.151145
vt 0.745669 0.782041
vt 0.619148 0.426777
vt 0.745669 0.426777
vt 0.000000 0.192371
vt 0.000000 0.782041
vt 0.774623 0.782041
vt 0.577922 0.418576
vt 0.774623 0.426777
vt 0.000000 0.426777
vt 0.000000 0.234405
vt 0.024623 0.782041
vt 0.539088 0.402491
vt 0.024623 0.426777
vt 0.008200 0.275631
vt 0.053576 0.782041
vt 0.504138 0.379138
vt 0.053576 0.426777
vt 0.024286 0.314466
vt 0.085748 0.782041
vt 0.474415 0.349415
vt 0.085748 0.426777
vt 0.047639 0.349416
vt 0.119900 0.782041
vt 0.451063 0.314466
vt 0.119900 0.426777
vt 0.077361 0.379138
vt 0.154722 0.782041
vt 0.434977 0.275631
vt 0.154722 0.426777
vt 0.112311 0.402491
vt 0.188875 0.782041
vt 0.426777 0.234405
vt 0.188875 0.426777
vt 0.151145 0.418576
vt 0.221047 0.782041
vt 0.426777 0.192371
vt 0.221047 0.426777
vt 0.192371 0.426777
vt 0.250000 0.782041
vt 0.434977 0.151145
vt 0.250000 0.426777
vt 0.234405 0.426777
vt 0.274623 0.782041
vt 0.451063 0.112311
vt 0.274623 0.426777
vt 0.275631 0.418576
vt 0.299246 0.782041
vt 0.474415 0.077361
vt 0.299246 0.426777
vt 0.314466 0.402491
vt 0.328199 0.782041
vt 0.504138 0.047639
vt 0.328199 0.426777
vt 0.349416 0.379138
vt 0.360370 0.782041
vt 0.539088 0.024286
vt 0.360370 0.426777
vt 0.379138 0.349416
vt 0.394523 0.782041
vt 0.577922 0.008200
vt 0.394523 0.426777
vt 0.402491 0.314466
vt 0.429345 0.782041
vt 0.619148 0.000000
vt 0.429345 0.426777
vt 0.418576 0.275631
vt 0.463498 0.782041
vt 0.661182 0.000000
vt 0.463498 0.426777
vt 0.426777 0.234405
vt 0.495669 0.782041
vt 0.702408 0.008200
vt 0.495670 0.426777
vt 0.426777 0.192371
vt 0.774623 0.782041
vt 0.524623 0.782041
vt 0.741242 0.024286
vt 0.524623 0.426777
vt 0.774623 0.426777
vt 0.418576 0.151145
vt 0.803576 0.782041
vt 0.776192 0.047639
vt 0.803576 0.426777
vt 0.402491 0.112311
vt 0.835748 0.782041
vt 0.805915 0.077361
vt 0.835748 0.426777
vt 0.379138 0.077361
vt 0.869900 0.782041
vt 0.829267 0.112311
vt 0.869901 0.426777
vt 0.349416 0.047639
vt 0.904722 0.782041
vt 0.845353 0.151145
vt 0.904722 0.426777
vt 0.314466 0.024286
vt 0.938875 0.782041
vt 0.853553 0.192371
vt 0.938875 0.426777
vt 0.275631 0.008200
vt 0.971047 0.782041
vt 0.853553 0.234405
vt 0.971047 0.426777
vt 0.234405 0.000000
vt 0.524623 0.782041
vt 1.000000 0.782041
vt 0.845353 0.275631
vt 1.000000 0.426777
vt 0.524623 0.426777
vt 0.192371 0.000000
vt 0.549246 0.782041
vt 0.829267 0.314466
vt 0.549246 0.426777
vt 0.151145 0.008200
vt 0.578199 0.782041
vt 0.805915 0.349415
vt 0.578199 0.426777
vt 0.112311 0.024286
vt 0.610370 0.782041
vt 0.776192 0.379138
vt 0.077361 0.047639
vt 0.610370 0.426777
vt 0.644523 0.782041
vt 0.741242 0.402491
vt 0.047639 0.077361
vt 0.644523 0.426777
s 0
f 2/4/1 3/5/1 1/1/1
f 4/7/2 5/9/2 3/5/2
f 6/11/3 7/14/3 5/9/3
f 8/17/4 9/19/4 7/13/4
f 10/21/5 11/23/5 9/19/5
f 12/25/6 13/27/6 11/23/6
f 14/29/7 15/31/7 13/27/7
f 16/33/8 17/35/8 15/31/8
f 18/37/9 19/39/9 17/35/9
f 20/41/10 21/43/10 19/39/10
f 22/45/11 23/47/11 21/43/11
f 24/49/12 25/51/12 23/47/12
f 26/53/13 27/55/13 25/51/13
f 28/57/14 29/59/14 27/55/14
f 30/61/15 31/63/15 29/59/15
f 32/65/16 33/67/16 31/63/16
f 34/69/17 35/71/17 33/67/17
f 36/73/18 37/75/18 35/71/18
f 38/77/19 39/79/19 37/75/19
f 40/81/20 41/84/20 39/79/20
f 42/87/21 43/89/21 41/83/21
f 44/91/22 45/93/22 43/89/22
f 46/95/23 47/97/23 45/93/23
f 48/99/24 49/101/24 47/97/24
f 50/103/25 51/105/25 49/101/25
f 52/107/26 53/109/26 51/105/26
f 54/111/27 55/114/27 53/109/27
f 56/117/28 57/119/28 55/113/28
f 58/121/29 59/123/29 57/119/29
f 60/125/30 61/127/30 59/123/30
f 38/78/31 22/46/31 6/12/31
f 62/130/32 63/131/32 61/127/32
f 64/134/33 1/1/33 63/131/33
f 31/64/34 47/98/34 63/132/34
f 2/4/1 4/7/1 3/5/1
f 4/7/2 6/11/2 5/9/2
f 6/11/3 8/16/3 7/14/3
f 8/17/4 10/21/4 9/19/4
f 10/21/5 12/25/5 11/23/5
f 12/25/6 14/29/6 13/27/6
f 14/29/7 16/33/7 15/31/7
f 16/33/8 18/37/8 17/35/8
f 18/37/9 20/41/9 19/39/9
f 20/41/10 22/45/10 21/43/10
f 22/45/11 24/49/11 23/47/11
f 24/49/12 26/53/12 25/51/12
f 26/53/13 28/57/13 27/55/13
f 28/57/14 30/61/14 29/59/14
f 30/61/15 32/65/15 31/63/15
f 32/65/16 34/69/16 33/67/16
f 34/69/17 36/73/17 35/71/17
f 36/73/18 38/77/18 37/75/18
f 38/77/19 40/81/19 39/79/19
f 40/81/20 42/86/20 41/84/20
f 42/87/21 44/91/21 43/89/21
f 44/91/22 46/95/22 45/93/22
f 46/95/23 48/99/23 47/97/23
f 48/99/24 50/103/24 49/101/24
f 50/103/25 52/107/25 51/105/25
f 52/107/26 54/111/26 53/109/26
f 54/111/27 56/116/27 55/114/27
f 56/117/28 58/121/28 57/119/28
f 58/121/29 60/125/29 59/123/29
f 60/125/30 62/130/30 61/127/30
f 6/12/31 4/8/31 2/3/31
f 2/3/31 64/133/31 62/129/31
f 62/129/31 60/126/31 58/122/31
f 58/122/31 56/118/31 54/112/31
f 54/112/31 52/108/31 50/104/31
f 50/104/31 48/100/31 46/96/31
f 46/96/31 44/92/31 42/88/31
f 42/88/31 40/82/31 38/78/31
f 38/78/31 36/74/31 34/70/31
f 34/70/31 32/66/31 30/62/31
f 30/62/31 28/58/31 26/54/31
f 26/54/31 24/50/31 22/46/31
f 22/46/31 20/42/31 18/38/31
f 18/38/31 16/34/31 14/30/31
f 14/30/31 12/26/31 10/22/31
f 10/22/31 8/18/31 6/12/31
f 6/12/31 2/3/31 62/129/31
f 62/129/31 58/122/31 54/112/31
f 54/112/31 50/104/31 46/96/31
f 46/96/31 42/88/31 38/78/31
f 38/78/31 34/70/31 30/62/31
f 30/62/31 26/54/31 22/46/31
f 22/46/31 18/38/31 14/30/31
f 14/30/31 10/22/31 6/12/31
f 6/12/31 62/129/31 54/112/31
f 54/112/31 46/96/31 38/78/31
f 38/78/31 30/62/31 22/46/31
f 22/46/31 14/30/31 6/12/31
f 6/12/31 54/112/31 38/78/31
f 62/130/32 64/134/32 63/131/32
f 64/134/33 2/4/33 1/1/33
f 63/132/34 1/2/34 3/6/34
f 3/6/34 5/10/34 7/15/34
f 7/15/34 9/20/34 11/24/34
f 11/24/34 13/28/34 15/32/34
f 15/32/34 17/36/34 19/40/34
f 19/40/34 21/44/34 23/48/34
f 23/48/34 25/52/34 27/56/34
f 27/56/34 29/60/34 31/64/34
f 31/64/34 33/68/34 35/72/34
f 35/72/34 37/76/34 39/80/34
f 39/80/34 41/85/34 43/90/34
f 43/90/34 45/94/34 47/98/34
f 47/98/34 49/102/34 51/106/34
f 51/106/34 53/110/34 55/115/34
f 55/115/34 57/120/34 59/124/34
f 59/124/34 61/128/34 63/132/34
f 63/132/34 3/6/34 7/15/34
f 7/15/34 11/24/34 15/32/34
f 15/32/34 19/40/34 23/48/34
f 23/48/34 27/56/34 31/64/34
f 31/64/34 35/72/34 39/80/34
f 39/80/34 43/90/34 47/98/34
f 47/98/34 51/106/34 55/115/34
f 55/115/34 59/124/34 63/132/34
f 63/132/34 7/15/34 15/32/34
f 15/32/34 23/48/34 31/64/34
f 31/64/34 39/80/34 47/98/34
f 47/98/34 55/115/34 63/132/34
f 63/132/34 15/32/34 31/64/34
