# Blender 3.4.1
# www.blender.org
mtllib fence.mtl
o Cube.002
v 1.100000 2.000000 -0.100000
v 1.100000 0.000000 -0.100000
v 1.100000 2.000000 0.100000
v 1.100000 0.000000 0.100000
v 0.900000 2.000000 -0.100000
v 0.900000 0.000000 -0.100000
v 0.900000 2.000000 0.100000
v 0.900000 0.000000 0.100000
v 2.000000 2.100000 -0.100000
v 2.000000 1.900000 -0.100000
v 2.000000 2.100000 0.100000
v 2.000000 1.900000 0.100000
v -2.000000 2.100000 -0.100000
v -2.000000 1.900000 -0.100000
v -2.000000 2.100000 0.100000
v -2.000000 1.900000 0.100000
v 2.000000 1.100000 -0.100000
v 2.000000 0.900000 -0.100000
v 2.000000 1.100000 0.100000
v 2.000000 0.900000 0.100000
v -2.000000 1.100000 -0.100000
v -2.000000 0.900000 -0.100000
v -2.000000 1.100000 0.100000
v -2.000000 0.900000 0.100000
v -0.900000 2.000000 -0.100000
v -0.900000 0.000000 -0.100000
v -0.900000 2.000000 0.100000
v -0.900000 0.000000 0.100000
v -1.100000 2.000000 -0.100000
v -1.100000 0.000000 -0.100000
v -1.100000 2.000000 0.100000
v -1.100000 0.000000 0.100000
vn -0.0000 1.0000 -0.0000
vn -0.0000 -0.0000 1.0000
vn -1.0000 -0.0000 -0.0000
vn -0.0000 -1.0000 -0.0000
vn 1.0000 -0.0000 -0.0000
vn -0.0000 -0.0000 -1.0000
vt 0.270000 0.150000
vt 0.270000 0.250000
vt 0.220000 0.300000
vt 0.270000 0.200000
vt 0.270000 0.150000
vt 0.220000 0.250000
vt 0.270000 0.200000
vt 0.270000 0.100000
vt 0.220000 0.250000
vt 0.270000 0.050000
vt 0.270000 0.200000
vt 0.220000 0.200000
vt 0.320000 0.150000
vt 0.220000 0.150000
vt 0.270000 0.300000
vt 0.220000 0.150000
vt 0.270000 0.250000
vt 0.220000 0.100000
vt 0.320000 0.200000
vt 0.220000 0.100000
vt 0.270000 0.150000
vt 0.270000 0.100000
vt 0.220000 0.050000
vt 0.220000 0.200000
vt 0.100000 0.000000
vt 0.320000 0.050000
vt 0.205000 0.000000
vt 0.325000 0.050000
vt 0.200000 1.000000
vt 0.210000 0.000000
vt 0.050000 0.000000
vt 0.200000 1.000000
vt 0.320000 0.000000
vt 0.205000 1.000000
vt 0.150000 1.000000
vt 0.325000 0.000000
vt 0.100000 1.000000
vt 0.320000 0.050000
vt 0.205000 1.000000
vt 0.200000 0.000000
vt 0.210000 1.000000
vt 0.325000 0.050000
vt 0.050000 1.000000
vt 0.200000 0.000000
vt 0.320000 0.100000
vt 0.325000 0.100000
vt 0.205000 0.000000
vt 0.150000 0.000000
vt 0.050000 0.000000
vt 0.320000 0.200000
vt 0.215000 0.000000
vt 0.325000 0.200000
vt 0.150000 1.000000
vt 0.220000 0.000000
vt 0.000000 0.000000
vt 0.210000 1.000000
vt 0.320000 0.150000
vt 0.215000 1.000000
vt 0.100000 1.000000
vt 0.325000 0.150000
vt 0.050000 1.000000
vt 0.320000 0.100000
vt 0.215000 1.000000
vt 0.150000 0.000000
vt 0.220000 1.000000
vt 0.325000 0.100000
vt 0.000000 1.000000
vt 0.210000 0.000000
vt 0.320000 0.150000
vt 0.325000 0.150000
vt 0.215000 0.000000
vt 0.100000 0.000000
vt 0.270000 0.200000
vt 0.320000 0.150000
vt 0.219999 0.050000
vt 0.320000 0.100000
vt 0.320000 0.250000
vt 0.219999 0.000000
vt 0.270000 0.250000
vt 0.320000 0.050000
vt 0.270000 0.150000
vt 0.320000 0.000000
vt 0.320000 0.300000
vt 0.270000 0.100000
vt 0.320000 0.200000
vt 0.270000 0.100000
vt 0.269999 0.050000
vt 0.270000 0.250000
vt 0.269999 0.000000
vt 0.270000 0.050000
vt 0.320000 0.250000
vt 0.270000 0.050000
vt 0.320000 0.100000
vt 0.320000 0.050000
vt 0.270000 0.000000
vt 0.270000 0.300000
s 0
usemtl Material.002
f 5/13/1 3/7/1 1/1/1
f 3/8/2 8/23/2 4/10/2
f 7/21/3 6/18/3 8/22/3
f 2/5/4 8/24/4 6/16/4
f 1/2/5 4/12/5 2/4/5
f 5/15/6 2/6/6 6/17/6
f 5/13/1 7/19/1 3/7/1
f 3/8/2 7/20/2 8/23/2
f 7/21/3 5/14/3 6/18/3
f 2/5/4 4/11/4 8/24/4
f 1/2/5 3/9/5 4/12/5
f 5/15/6 1/3/6 2/6/6
usemtl Material
f 13/37/1 11/31/1 9/25/1
f 11/32/2 16/47/2 12/34/2
f 15/45/3 14/42/3 16/46/3
f 10/29/4 16/48/4 14/40/4
f 9/26/5 12/36/5 10/28/5
f 13/39/6 10/30/6 14/41/6
f 13/37/1 15/43/1 11/31/1
f 11/32/2 15/44/2 16/47/2
f 15/45/3 13/38/3 14/42/3
f 10/29/4 12/35/4 16/48/4
f 9/26/5 11/33/5 12/36/5
f 13/39/6 9/27/6 10/30/6
usemtl Material.001
f 21/61/1 19/55/1 17/49/1
f 19/56/2 24/71/2 20/58/2
f 23/69/3 22/66/3 24/70/3
f 18/53/4 24/72/4 22/64/4
f 17/50/5 20/60/5 18/52/5
f 21/63/6 18/54/6 22/65/6
f 21/61/1 23/67/1 19/55/1
f 19/56/2 23/68/2 24/71/2
f 23/69/3 21/62/3 22/66/3
f 18/53/4 20/59/4 24/72/4
f 17/50/5 19/57/5 20/60/5
f 21/63/6 17/51/6 18/54/6
usemtl Material.003
f 29/85/1 27/79/1 25/73/1
f 27/80/2 32/95/2 28/82/2
f 31/93/3 30/90/3 32/94/3
f 26/77/4 32/96/4 30/88/4
f 25/74/5 28/84/5 26/76/5
f 29/87/6 26/78/6 30/89/6
f 29/85/1 31/91/1 27/79/1
f 27/80/2 31/92/2 32/95/2
f 31/93/3 29/86/3 30/90/3
f 26/77/4 28/83/4 32/96/4
f 25/74/5 27/81/5 28/84/5
f 29/87/6 25/75/6 26/78/6
