# Blender 3.4.1
# www.blender.org
mtllib myRobot.mtl
o Cube
v 1.000000 4.179501 -1.000000
v 1.000000 2.179501 -1.000000
v 1.000000 4.179501 1.000000
v 1.000000 2.179501 1.000000
v -1.000000 4.179501 -1.000000
v -1.000000 2.179501 -1.000000
v -1.000000 4.179501 1.000000
v -1.000000 2.179501 1.000000
v 0.988177 5.805466 0.965275
v -1.011745 5.788746 0.971112
v 0.982648 5.768745 -1.034380
v -1.017274 5.752026 -1.028543
v -1.004398 2.249480 2.360898
v -0.994378 4.214452 2.386571
v 1.005184 4.206268 2.427589
v 0.993852 2.233059 2.442904
v 1.000000 2.179501 -2.284564
v -1.000000 2.179501 -2.284564
v 1.000000 4.179501 -2.284564
v -1.000000 4.179501 -2.284564
v 1.000000 2.179501 -2.284564
v -1.000000 2.179501 -2.284564
v 1.000000 4.179501 -2.284564
v -1.000000 4.179501 -2.284564
v -1.000000 2.179501 -1.000000
v -1.000000 2.179501 1.000000
v 1.000000 2.179501 -1.000000
v 1.000000 2.179501 1.000000
v -1.000000 2.179501 0.000000
v 1.000000 2.179501 0.000000
v 1.000000 -0.019885 -1.743837
v -1.000000 -0.019885 -1.743837
v 1.000000 -0.019885 -0.743837
v -1.000000 -0.019885 -0.743837
v -1.000000 -0.004823 0.894762
v -1.000000 -0.004823 1.894762
v 1.000000 -0.004823 1.894762
v 1.000000 -0.004823 0.894762
v -1.000000 4.179501 -1.000000
v 1.000000 4.179501 -1.000000
v -1.000000 4.179501 -2.284564
v 1.000000 4.179501 -2.284564
vn -0.9999 -0.0109 0.0030
vn -1.0000 0.0050 0.0039
vn -1.0000 -0.0000 -0.0000
vn -0.0000 1.0000 -0.0000
vn 1.0000 -0.0000 -0.0000
vn -0.0084 0.9998 -0.0183
vn 1.0000 0.0073 -0.0000
vn -0.0000 -0.0216 -0.9998
vn 0.0028 0.0180 0.9998
vn -0.0409 0.0080 0.9991
vn -0.0000 -0.9987 0.0514
vn 0.0045 0.9998 -0.0188
vn 1.0000 -0.0000 0.0043
vn -0.0000 -1.0000 -0.0000
vn -0.0000 -0.0000 -1.0000
vn -0.0000 -0.4960 0.8684
vn -0.0000 0.3204 -0.9473
vn -0.0000 -0.3204 0.9473
vn -0.0000 -0.3791 -0.9254
vn -0.0000 0.3791 0.9254
vn -1.0000 -0.0073 -0.0000
vn -1.0000 -0.0000 -0.0032
vn 0.9999 0.0109 -0.0030
vn -0.0028 -0.0182 -0.9998
vn -0.0000 0.0214 0.9998
vn -0.0206 -0.0130 0.9997
vn -0.0097 -0.9993 0.0370
vn -0.0000 0.9997 -0.0252
vn 1.0000 -0.0058 -0.0035
vn -0.0000 0.8944 0.4472
vt 0.788664 0.000000
vt 0.179256 0.113345
vt 0.322645 0.413922
vt 0.717024 0.766867
vt 0.000000 0.113345
vt 0.322645 0.413922
vt 0.787492 0.352945
vt 0.843085 0.413922
vt 0.179256 0.289818
vt 0.000000 0.289818
vt 0.126061 0.791679
vt 0.322645 0.413922
vt 0.501901 0.300577
vt 0.788664 0.176473
vt 0.322645 0.413922
vt 0.322645 0.300577
vt 0.717024 0.590394
vt 0.322645 0.413922
vt 0.501901 0.124104
vt 0.787492 0.176473
vt 0.843085 0.590394
vt 0.126061 0.615206
vt 0.322645 0.124104
vt 0.322645 0.413922
vt 0.537768 0.774417
vt 0.322645 0.289818
vt 0.645291 0.352945
vt 0.645291 0.176473
vt 0.645291 0.124104
vt 0.717024 0.774417
vt 0.537768 0.597945
vt 0.322645 0.113345
vt 0.645291 0.000000
vt 0.645291 0.300577
vt 0.717024 0.597945
vt 0.645291 0.176473
vt 0.322645 0.000000
vt 0.357026 0.607833
vt 0.000000 0.615206
vt 0.501902 0.000000
vt 0.179256 0.607833
vt 0.717024 0.590394
vt 0.717024 0.413922
vt 0.179256 0.784306
vt 0.179256 0.413922
vt 0.357026 0.784306
vt 0.000000 0.791679
vt 0.000000 0.413922
vt 0.832157 0.766867
vt 0.000000 0.000000
vt 0.322645 0.413922
vt 0.832157 0.590394
vt 0.322645 0.413922
vt 0.179256 0.000000
vt 0.322645 0.413922
vt 0.501901 0.413922
vt 0.322645 0.413922
vt 0.537747 0.606971
vt 0.322645 0.413922
vt 0.537747 0.783444
vt 0.322645 0.413922
vt 0.322645 0.413922
vt 0.358512 0.606971
vt 0.358512 0.783444
vt 0.322645 0.413922
vt 0.537768 0.606971
vt 0.322645 0.413922
vt 0.915096 0.795258
vt 0.322645 0.413922
vt 0.000000 0.615206
vt 0.985564 0.384753
vt 0.322645 0.413922
vt 0.801928 0.971731
vt 0.358512 0.606971
vt 0.179256 0.615206
vt 0.832157 0.798675
vt 0.322645 0.413922
vt 1.000000 0.823527
vt 0.358512 0.607833
vt 0.322645 0.413922
vt 0.537768 0.597945
vt 0.902625 0.418200
vt 0.915096 0.832122
vt 0.717024 0.597945
vt 0.322645 0.413922
vt 0.717024 1.000000
vt 0.179256 0.607833
vt 0.801928 0.766867
vt 0.878292 0.176473
vt 0.358512 0.413922
vt 0.878292 0.000000
vt 0.537768 0.413922
vt 0.915096 0.590394
vt 0.717024 0.795136
vt 0.788664 0.176473
vt 0.717024 0.413922
vt 0.788664 0.000000
vt 0.537768 0.413922
vt 1.000000 0.618663
vt 0.627396 0.774417
vt 0.358512 0.413922
vt 0.902625 0.209919
vt 0.985564 0.176473
vt 0.537768 0.774417
vt 0.000000 0.413922
vt 0.832157 0.590395
vt 0.537768 0.950890
vt 0.179256 0.413922
vt 0.915096 0.623841
vt 0.627396 0.950890
vt 0.179256 0.413922
vt 0.787492 0.352945
vt 0.322645 0.413922
vt 0.787492 0.176473
vt 0.322645 0.413922
vt 0.322645 0.413922
vt 0.902624 0.352945
vt 0.902624 0.176473
vt 0.322645 0.413922
s 0
usemtl Material
f 5/13/1 10/29/1 12/34/1
f 7/19/2 13/37/2 14/40/2
f 7/19/3 6/16/3 8/23/3
f 6/18/4 27/72/4 25/67/4
f 1/2/5 4/10/5 2/5/5
f 5/13/3 18/53/3 6/16/3
f 11/31/6 10/30/6 9/25/6
f 1/2/7 9/26/7 3/9/7
f 5/14/8 11/33/8 1/1/8
f 7/20/9 9/27/9 10/28/9
f 15/44/10 13/38/10 16/46/10
f 4/11/11 13/39/11 8/22/11
f 3/8/12 14/42/12 15/43/12
f 3/9/13 16/48/13 4/10/13
f 20/57/4 23/62/4 24/65/4
f 6/17/14 17/49/14 2/4/14
f 19/55/4 41/116/4 42/119/4
f 2/5/5 19/54/5 1/2/5
f 24/64/15 21/58/15 22/60/15
f 19/55/4 21/59/4 23/62/4
f 18/53/5 24/65/5 22/61/5
f 18/53/16 21/59/16 17/51/16
f 28/76/5 38/109/5 30/83/5
f 4/12/4 26/69/4 28/77/4
f 8/24/4 6/18/4 29/80/4
f 2/6/4 4/12/4 30/85/4
f 27/73/5 33/94/5 31/88/5
f 31/89/14 34/97/14 32/91/14
f 27/74/17 32/92/17 25/66/17
f 29/81/18 33/96/18 30/84/18
f 25/68/3 34/99/3 29/78/3
f 38/110/14 36/104/14 35/100/14
f 30/87/19 35/101/19 29/79/19
f 26/70/20 37/108/20 28/75/20
f 26/71/3 35/102/3 36/103/3
f 40/114/4 41/117/4 39/112/4
f 5/15/4 40/115/4 39/113/4
f 20/57/4 39/113/4 41/116/4
f 1/3/4 42/119/4 40/115/4
f 5/13/21 7/19/21 10/29/21
f 7/19/22 8/23/22 13/37/22
f 7/19/3 5/13/3 6/16/3
f 6/18/4 2/6/4 27/72/4
f 1/2/5 3/9/5 4/10/5
f 5/13/3 20/56/3 18/53/3
f 11/31/6 12/35/6 10/30/6
f 1/2/23 11/32/23 9/26/23
f 5/14/24 12/36/24 11/33/24
f 7/20/25 3/7/25 9/27/25
f 15/44/26 14/41/26 13/38/26
f 4/11/27 16/47/27 13/39/27
f 3/8/28 7/21/28 14/42/28
f 3/9/29 15/45/29 16/48/29
f 20/57/4 19/55/4 23/62/4
f 6/17/14 18/52/14 17/49/14
f 19/55/4 20/57/4 41/116/4
f 2/5/5 17/50/5 19/54/5
f 24/64/15 23/63/15 21/58/15
f 19/55/3 17/51/3 21/59/3
f 18/53/4 20/57/4 24/65/4
f 18/53/30 22/61/30 21/59/30
f 28/76/5 37/106/5 38/109/5
f 4/12/4 8/24/4 26/69/4
f 6/18/4 25/67/4 29/80/4
f 29/80/4 26/69/4 8/24/4
f 4/12/4 28/77/4 30/85/4
f 30/85/4 27/72/4 2/6/4
f 27/73/5 30/86/5 33/94/5
f 31/89/14 33/95/14 34/97/14
f 27/74/17 31/90/17 32/92/17
f 29/81/18 34/98/18 33/96/18
f 25/68/3 32/93/3 34/99/3
f 38/110/14 37/107/14 36/104/14
f 30/87/19 38/111/19 35/101/19
f 26/70/20 36/105/20 37/108/20
f 26/71/3 29/82/3 35/102/3
f 40/114/4 42/118/4 41/117/4
f 5/15/4 1/3/4 40/115/4
f 20/57/4 5/15/4 39/113/4
f 1/3/4 19/55/4 42/119/4
