# Blender 3.4.1
# www.blender.org
mtllib soup.mtl
o Cylinder
v 0.000000 -1.000000 -1.000000
v 0.000000 1.000000 -1.000000
v 0.195090 -1.000000 -0.980785
v 0.195090 1.000000 -0.980785
v 0.382683 -1.000000 -0.923880
v 0.382683 1.000000 -0.923880
v 0.555570 -1.000000 -0.831470
v 0.555570 1.000000 -0.831470
v 0.707107 -1.000000 -0.707107
v 0.707107 1.000000 -0.707107
v 0.831470 -1.000000 -0.555570
v 0.831470 1.000000 -0.555570
v 0.923880 -1.000000 -0.382683
v 0.923880 1.000000 -0.382683
v 0.980785 -1.000000 -0.195090
v 0.980785 1.000000 -0.195090
v 1.000000 -1.000000 0.000000
v 1.000000 1.000000 0.000000
v 0.980785 -1.000000 0.195090
v 0.980785 1.000000 0.195090
v 0.923880 -1.000000 0.382683
v 0.923880 1.000000 0.382683
v 0.831470 -1.000000 0.555570
v 0.831470 1.000000 0.555570
v 0.707107 -1.000000 0.707107
v 0.707107 1.000000 0.707107
v 0.555570 -1.000000 0.831470
v 0.555570 1.000000 0.831470
v 0.382683 -1.000000 0.923880
v 0.382683 1.000000 0.923880
v 0.195090 -1.000000 0.980785
v 0.195090 1.000000 0.980785
v 0.000000 -1.000000 1.000000
v 0.000000 1.000000 1.000000
v -0.195090 -1.000000 0.980785
v -0.195090 1.000000 0.980785
v -0.382683 -1.000000 0.923880
v -0.382683 1.000000 0.923880
v -0.555570 -1.000000 0.831470
v -0.555570 1.000000 0.831470
v -0.707107 -1.000000 0.707107
v -0.707107 1.000000 0.707107
v -0.831470 -1.000000 0.555570
v -0.831470 1.000000 0.555570
v -0.923880 -1.000000 0.382683
v -0.923880 1.000000 0.382683
v -0.980785 -1.000000 0.195090
v -0.980785 1.000000 0.195090
v -1.000000 -1.000000 0.000000
v -1.000000 1.000000 0.000000
v -0.980785 -1.000000 -0.195090
v -0.980785 1.000000 -0.195090
v -0.923880 -1.000000 -0.382683
v -0.923880 1.000000 -0.382683
v -0.831470 -1.000000 -0.555570
v -0.831470 1.000000 -0.555570
v -0.707107 -1.000000 -0.707107
v -0.707107 1.000000 -0.707107
v -0.555570 -1.000000 -0.831470
v -0.555570 1.000000 -0.831470
v -0.382683 -1.000000 -0.923880
v -0.382683 1.000000 -0.923880
v -0.195090 -1.000000 -0.980785
v -0.195090 1.000000 -0.980785
vn 0.0980 -0.0000 -0.9952
vn 0.2903 -0.0000 -0.9569
vn 0.4714 -0.0000 -0.8819
vn 0.6344 -0.0000 -0.7730
vn 0.7730 -0.0000 -0.6344
vn 0.8819 -0.0000 -0.4714
vn 0.9569 -0.0000 -0.2903
vn 0.9952 -0.0000 -0.0980
vn 0.9952 -0.0000 0.0980
vn 0.9569 -0.0000 0.2903
vn 0.8819 -0.0000 0.4714
vn 0.7730 -0.0000 0.6344
vn 0.6344 -0.0000 0.7730
vn 0.4714 -0.0000 0.8819
vn 0.2903 -0.0000 0.9569
vn 0.0980 -0.0000 0.9952
vn -0.0980 -0.0000 0.9952
vn -0.2903 -0.0000 0.9569
vn -0.4714 -0.0000 0.8819
vn -0.6344 -0.0000 0.7730
vn -0.7730 -0.0000 0.6344
vn -0.8819 -0.0000 0.4714
vn -0.9569 -0.0000 0.2903
vn -0.9952 -0.0000 0.0980
vn -0.9952 -0.0000 -0.0980
vn -0.9569 -0.0000 -0.2903
vn -0.8819 -0.0000 -0.4714
vn -0.7730 -0.0000 -0.6344
vn -0.6344 -0.0000 -0.7730
vn -0.4714 -0.0000 -0.8819
vn -0.0000 1.0000 -0.0000
vn -0.2903 -0.0000 -0.9569
vn -0.0980 -0.0000 -0.9952
vn -0.0000 -1.0000 -0.0000
vt 0.318865 0.781183
vt 0.319105 0.174346
vt 0.325200 0.429912
vt 0.000120 0.781182
vt 0.318865 0.749940
vt 0.319105 0.143104
vt 0.000120 0.749940
vt 0.319105 0.460554
vt 0.318865 0.718698
vt 0.325200 0.112462
vt 0.000120 0.718697
vt 0.319105 0.491796
vt 0.318865 0.687455
vt 0.337156 0.083597
vt 0.000120 0.687455
vt 0.325200 0.522439
vt 0.318865 0.656213
vt 0.354514 0.057620
vt 0.000120 0.656212
vt 0.337156 0.551303
vt 0.318865 0.624970
vt 0.376605 0.035528
vt 0.000120 0.624970
vt 0.354513 0.577280
vt 0.318865 0.593728
vt 0.402582 0.018171
vt 0.000120 0.593727
vt 0.376605 0.599372
vt 0.318865 0.562485
vt 0.431447 0.006215
vt 0.000120 0.562485
vt 0.402582 0.616729
vt 0.318865 0.531243
vt 0.462089 0.000120
vt 0.000120 0.531242
vt 0.431447 0.628685
vt 0.318865 0.500000
vt 0.493331 0.000120
vt 0.000120 0.500000
vt 0.462089 0.634780
vt 0.318865 0.468758
vt 0.523974 0.006215
vt 0.000120 0.468757
vt 0.493331 0.634780
vt 0.318865 0.437515
vt 0.552838 0.018171
vt 0.000120 0.437515
vt 0.523974 0.628685
vt 0.318865 0.406273
vt 0.578815 0.035528
vt 0.000120 0.406272
vt 0.552838 0.616729
vt 0.318865 0.375030
vt 0.600907 0.057620
vt 0.000120 0.375030
vt 0.578815 0.599372
vt 0.318865 0.343788
vt 0.618264 0.083597
vt 0.000120 0.343787
vt 0.600907 0.577280
vt 0.318865 0.312545
vt 0.630220 0.112462
vt 0.000120 0.312545
vt 0.618264 0.551303
vt 0.318865 0.281303
vt 0.636315 0.143104
vt 0.000120 0.281302
vt 0.630220 0.522439
vt 0.318865 0.250060
vt 0.636315 0.174346
vt 0.000120 0.250060
vt 0.636315 0.491796
vt 0.318865 0.218818
vt 0.630220 0.204988
vt 0.000120 0.218817
vt 0.636315 0.460554
vt 0.318865 0.187575
vt 0.618264 0.233853
vt 0.000120 0.187575
vt 0.630220 0.429912
vt 0.318865 0.156333
vt 0.600907 0.259830
vt 0.000120 0.156332
vt 0.618264 0.401048
vt 0.318865 0.125090
vt 0.578815 0.281922
vt 0.000120 0.125090
vt 0.600907 0.375070
vt 0.318865 0.093848
vt 0.552838 0.299279
vt 0.000120 0.093847
vt 0.578815 0.352979
vt 0.318865 0.062605
vt 0.523974 0.311235
vt 0.000120 0.062605
vt 0.552838 0.335621
vt 0.318865 0.031363
vt 0.493331 0.317330
vt 0.000120 0.031362
vt 0.523974 0.323665
vt 0.318865 0.999880
vt 0.318865 0.000120
vt 0.462089 0.317330
vt 0.000120 0.000120
vt 0.000120 0.999880
vt 0.493331 0.317570
vt 0.318865 0.968638
vt 0.431447 0.311235
vt 0.000120 0.968637
vt 0.462089 0.317570
vt 0.318865 0.937395
vt 0.402582 0.299279
vt 0.000120 0.937395
vt 0.431447 0.323665
vt 0.318865 0.906153
vt 0.376605 0.281922
vt 0.000120 0.906152
vt 0.402583 0.335621
vt 0.318865 0.874910
vt 0.354514 0.259830
vt 0.000120 0.874910
vt 0.376605 0.352978
vt 0.318865 0.843668
vt 0.337156 0.233853
vt 0.354514 0.375070
vt 0.000120 0.843667
vt 0.318865 0.812425
vt 0.325200 0.204988
vt 0.337156 0.401047
vt 0.000120 0.812425
s 0
f 2/4/1 3/5/1 1/1/1
f 4/7/2 5/9/2 3/5/2
f 6/11/3 7/13/3 5/9/3
f 8/15/4 9/17/4 7/13/4
f 10/19/5 11/21/5 9/17/5
f 12/23/6 13/25/6 11/21/6
f 14/27/7 15/29/7 13/25/7
f 16/31/8 17/33/8 15/29/8
f 18/35/9 19/37/9 17/33/9
f 20/39/10 21/41/10 19/37/10
f 22/43/11 23/45/11 21/41/11
f 24/47/12 25/49/12 23/45/12
f 26/51/13 27/53/13 25/49/13
f 28/55/14 29/57/14 27/53/14
f 30/59/15 31/61/15 29/57/15
f 32/63/16 33/65/16 31/61/16
f 34/67/17 35/69/17 33/65/17
f 36/71/18 37/73/18 35/69/18
f 38/75/19 39/77/19 37/73/19
f 40/79/20 41/81/20 39/77/20
f 42/83/21 43/85/21 41/81/21
f 44/87/22 45/89/22 43/85/22
f 46/91/23 47/93/23 45/89/23
f 48/95/24 49/97/24 47/93/24
f 50/99/25 51/102/25 49/97/25
f 52/105/26 53/107/26 51/101/26
f 54/109/27 55/111/27 53/107/27
f 56/113/28 57/115/28 55/111/28
f 58/117/29 59/119/29 57/115/29
f 60/121/30 61/123/30 59/119/30
f 38/76/31 22/44/31 6/12/31
f 62/126/32 63/127/32 61/123/32
f 64/130/33 1/1/33 63/127/33
f 31/62/34 47/94/34 63/128/34
f 2/4/1 4/7/1 3/5/1
f 4/7/2 6/11/2 5/9/2
f 6/11/3 8/15/3 7/13/3
f 8/15/4 10/19/4 9/17/4
f 10/19/5 12/23/5 11/21/5
f 12/23/6 14/27/6 13/25/6
f 14/27/7 16/31/7 15/29/7
f 16/31/8 18/35/8 17/33/8
f 18/35/9 20/39/9 19/37/9
f 20/39/10 22/43/10 21/41/10
f 22/43/11 24/47/11 23/45/11
f 24/47/12 26/51/12 25/49/12
f 26/51/13 28/55/13 27/53/13
f 28/55/14 30/59/14 29/57/14
f 30/59/15 32/63/15 31/61/15
f 32/63/16 34/67/16 33/65/16
f 34/67/17 36/71/17 35/69/17
f 36/71/18 38/75/18 37/73/18
f 38/75/19 40/79/19 39/77/19
f 40/79/20 42/83/20 41/81/20
f 42/83/21 44/87/21 43/85/21
f 44/87/22 46/91/22 45/89/22
f 46/91/23 48/95/23 47/93/23
f 48/95/24 50/99/24 49/97/24
f 50/99/25 52/104/25 51/102/25
f 52/105/26 54/109/26 53/107/26
f 54/109/27 56/113/27 55/111/27
f 56/113/28 58/117/28 57/115/28
f 58/117/29 60/121/29 59/119/29
f 60/121/30 62/126/30 61/123/30
f 6/12/31 4/8/31 2/3/31
f 2/3/31 64/129/31 62/125/31
f 62/125/31 60/122/31 58/118/31
f 58/118/31 56/114/31 54/110/31
f 54/110/31 52/106/31 50/100/31
f 50/100/31 48/96/31 46/92/31
f 46/92/31 44/88/31 42/84/31
f 42/84/31 40/80/31 38/76/31
f 38/76/31 36/72/31 34/68/31
f 34/68/31 32/64/31 30/60/31
f 30/60/31 28/56/31 26/52/31
f 26/52/31 24/48/31 22/44/31
f 22/44/31 20/40/31 18/36/31
f 18/36/31 16/32/31 14/28/31
f 14/28/31 12/24/31 10/20/31
f 10/20/31 8/16/31 6/12/31
f 6/12/31 2/3/31 62/125/31
f 62/125/31 58/118/31 54/110/31
f 54/110/31 50/100/31 46/92/31
f 46/92/31 42/84/31 38/76/31
f 38/76/31 34/68/31 30/60/31
f 30/60/31 26/52/31 22/44/31
f 22/44/31 18/36/31 14/28/31
f 14/28/31 10/20/31 6/12/31
f 6/12/31 62/125/31 54/110/31
f 54/110/31 46/92/31 38/76/31
f 38/76/31 30/60/31 22/44/31
f 22/44/31 14/28/31 6/12/31
f 6/12/31 54/110/31 38/76/31
f 62/126/32 64/130/32 63/127/32
f 64/130/33 2/4/33 1/1/33
f 63/128/34 1/2/34 3/6/34
f 3/6/34 5/10/34 7/14/34
f 7/14/34 9/18/34 11/22/34
f 11/22/34 13/26/34 15/30/34
f 15/30/34 17/34/34 19/38/34
f 19/38/34 21/42/34 23/46/34
f 23/46/34 25/50/34 27/54/34
f 27/54/34 29/58/34 31/62/34
f 31/62/34 33/66/34 35/70/34
f 35/70/34 37/74/34 39/78/34
f 39/78/34 41/82/34 43/86/34
f 43/86/34 45/90/34 47/94/34
f 47/94/34 49/98/34 51/103/34
f 51/103/34 53/108/34 55/112/34
f 55/112/34 57/116/34 59/120/34
f 59/120/34 61/124/34 63/128/34
f 63/128/34 3/6/34 7/14/34
f 7/14/34 11/22/34 15/30/34
f 15/30/34 19/38/34 23/46/34
f 23/46/34 27/54/34 31/62/34
f 31/62/34 35/70/34 39/78/34
f 39/78/34 43/86/34 47/94/34
f 47/94/34 51/103/34 55/112/34
f 55/112/34 59/120/34 63/128/34
f 63/128/34 7/14/34 15/30/34
f 15/30/34 23/46/34 31/62/34
f 31/62/34 39/78/34 47/94/34
f 47/94/34 55/112/34 63/128/34
f 63/128/34 15/30/34 31/62/34
